<svg xmlns="http://www.w3.org/2000/svg" viewBox="0 0 390 844" preserveAspectRatio="xMidYMid slice">
<defs>
<linearGradient id="sky" x1="0" y1="0" x2="0" y2="1"><stop offset="0" stop-color="#3E1E27"/><stop offset="0.72" stop-color="#2A151C"/></linearGradient>
<radialGradient id="lg" cx="0.5" cy="0.5" r="0.5"><stop offset="0" stop-color="#F2C879" stop-opacity="0.85"/><stop offset="0.45" stop-color="#D98A3D" stop-opacity="0.3"/><stop offset="1" stop-color="#D98A3D" stop-opacity="0"/></radialGradient>
</defs>
<!-- 1 sky/backdrop: maroon wall sinking into darkness -->
<rect width="390" height="844" fill="url(#sky)"/>
<!-- 2 far: cracked wall, faded photo patch, peeling paint, corner shadow, floor -->
<polygon points="0,596 0,380 90,596" fill="#2A141E" opacity="0.55"/>
<rect x="66" y="228" width="64" height="84" fill="#543039"/>
<rect x="66" y="228" width="64" height="6" fill="#5E3842"/>
<circle cx="98" cy="214" r="2.5" fill="#241826"/>
<polygon points="128,232 130,231 148,196 162,178 158,176 144,194" fill="#2E161F"/>
<polygon points="300,420 302,419 318,372 330,352 326,350 312,371" fill="#2E161F"/>
<ellipse cx="250" cy="470" rx="26" ry="14" fill="#4A2830"/>
<ellipse cx="254" cy="472" rx="16" ry="8" fill="#3A1F28"/>
<rect x="0" y="596" width="390" height="248" fill="#2A1B28"/>
<rect x="0" y="592" width="390" height="6" fill="#241726"/>
<rect x="0" y="700" width="390" height="4" fill="#241627" opacity="0.8"/>
<!-- 3 mid: hanging bulb, tape deck on stool, cigarette + smoke, crumpled letters -->
<rect x="193" y="0" width="3" height="246" fill="#241826"/>
<rect x="188" y="246" width="13" height="14" rx="2" fill="#3A2A34"/>
<rect x="189" y="258" width="11" height="5" fill="#4A3640"/>
<circle cx="194.5" cy="274" r="14" fill="#E2A94E"/>
<circle cx="193" cy="271" r="8" fill="#F2CF8A"/>
<polygon points="102,482 110,482 100,592 92,592" fill="#5A3428"/>
<polygon points="172,482 180,482 188,592 180,592" fill="#5A3428"/>
<polygon points="126,482 132,482 128,584 122,584" fill="#48281E"/>
<polygon points="97,548 184,548 184,553 97,553" fill="#4A2A22"/>
<rect x="92" y="470" width="98" height="14" rx="3" fill="#6E4230"/>
<rect x="92" y="470" width="98" height="5" rx="2" fill="#7E5038"/>
<rect x="98" y="420" width="88" height="50" rx="4" fill="#574840"/>
<rect x="98" y="420" width="88" height="7" rx="3" fill="#695850"/>
<rect x="180" y="424" width="6" height="42" fill="#6E5A50"/>
<rect x="104" y="432" width="76" height="30" rx="2" fill="#4A3C36"/>
<circle cx="124" cy="444" r="10" fill="#8A7A72"/><circle cx="124" cy="444" r="3" fill="#322824"/>
<circle cx="160" cy="444" r="10" fill="#8A7A72"/><circle cx="160" cy="444" r="3" fill="#322824"/>
<rect x="110" y="454" width="9" height="6" fill="#322A28"/><rect x="121" y="454" width="9" height="6" fill="#322A28"/><rect x="132" y="454" width="9" height="6" fill="#9A8A80"/><rect x="143" y="454" width="9" height="6" fill="#322A28"/>
<circle cx="172" cy="457" r="3" fill="#C9863C"/>
<rect x="216" y="600" width="26" height="16" rx="2" fill="#4A3C36"/>
<rect x="220" y="604" width="18" height="8" rx="1" fill="#7E6E64"/>
<ellipse cx="264" cy="608" rx="14" ry="5" fill="#5A4A50"/>
<ellipse cx="264" cy="607" rx="10" ry="3" fill="#3A2E38"/>
<g transform="rotate(-15 264 602)">
<rect x="254" y="600" width="18" height="3.4" fill="#E0D4C0"/>
<rect x="270" y="600" width="3" height="3.4" fill="#E06A30"/>
</g>
<path d="M266 592 C258 570 276 556 266 534 C258 516 276 502 268 482 C264 472 272 466 270 458 L274 459 C277 468 268 474 273 484 C281 503 263 517 272 535 C280 556 262 570 271 591 Z" fill="#C9BCB4" opacity="0.22"/>
<polygon points="58,606 74,600 84,608 76,617 62,616" fill="#D9C9B4"/>
<polygon points="62,606 74,601 72,610" fill="#B8A890"/>
<polygon points="92,610 102,606 108,612 100,617" fill="#CFBFAA"/>
<!-- 4 near: doorframe bleeding off right -->
<rect x="344" y="0" width="46" height="844" fill="#241A2E"/>
<rect x="344" y="0" width="8" height="844" fill="#2E2038"/>
<!-- 5 light: the naked bulb's uneasy amber flicker -->
<ellipse cx="195" cy="280" rx="200" ry="220" fill="url(#lg)" opacity="0.5">
<animate attributeName="opacity" values="0.5;0.42;0.5;0.34;0.47;0.5" dur="3.6s" repeatCount="indefinite"/>
</ellipse>
<filter id="g"><feTurbulence type="fractalNoise" baseFrequency="0.9" numOctaves="2" stitchTiles="stitch"/><feColorMatrix type="matrix" values="0 0 0 0 0 0 0 0 0 0 0 0 0 0 0 0 0 0 0.55 0"/></filter>
<rect width="390" height="844" filter="url(#g)" opacity="0.16"/>
</svg>
