<svg xmlns="http://www.w3.org/2000/svg" viewBox="0 0 390 844" preserveAspectRatio="xMidYMid slice">
<defs>
<linearGradient id="sky" x1="0" y1="0" x2="0" y2="1"><stop offset="0" stop-color="#1E2A23"/><stop offset="0.55" stop-color="#233129"/><stop offset="1" stop-color="#262119"/></linearGradient>
<radialGradient id="lg" cx="0.5" cy="0.5" r="0.5"><stop offset="0" stop-color="#FFCF7A" stop-opacity="0.9"/><stop offset="0.4" stop-color="#E8A83C" stop-opacity="0.32"/><stop offset="1" stop-color="#E8A83C" stop-opacity="0"/></radialGradient>
</defs>
<rect width="390" height="844" fill="url(#sky)"/>
<rect x="10" y="150" width="60" height="278" fill="#232F28"/>
<rect x="18" y="158" width="44" height="262" fill="#C4CBD8" opacity="0.8"/>
<rect x="18" y="238" width="44" height="6" fill="#232F28"/>
<rect x="18" y="330" width="44" height="6" fill="#232F28"/>
<rect x="37" y="158" width="6" height="262" fill="#232F28"/>
<polygon points="20,428 62,428 128,620 34,620" fill="#C4CBD8" opacity="0.07"/>
<rect x="316" y="220" width="44" height="58" fill="#2A362E"/>
<rect x="322" y="226" width="32" height="46" fill="#232F28"/>
<rect x="90" y="468" width="226" height="16" fill="#5C4128"/>
<rect x="90" y="468" width="226" height="5" fill="#7A5636"/>
<rect x="94" y="484" width="218" height="12" fill="#4A3420"/>
<rect x="102" y="496" width="13" height="124" fill="#3E2C1C"/>
<rect x="292" y="496" width="13" height="124" fill="#3E2C1C"/>
<ellipse cx="230" cy="472" rx="90" ry="7" fill="#E8A83C" opacity="0.18"/>
<path d="M130 468 L130 398 Q130 328 213 328 Q296 328 296 402 L296 468 Z" fill="#6B4629"/>
<path d="M144 468 L144 404 Q144 344 213 344 Q282 344 282 406 L282 468 Z" fill="#573823"/>
<rect x="156" y="358" width="60" height="72" rx="8" fill="#33241A"/>
<rect x="158" y="362" width="56" height="64" rx="6" fill="#E8A83C" opacity="0.22"/>
<rect x="163" y="360" width="6.5" height="68" rx="3" fill="#6B4629"/>
<rect x="176" y="360" width="6.5" height="68" rx="3" fill="#6B4629"/>
<rect x="189" y="360" width="6.5" height="68" rx="3" fill="#6B4629"/>
<rect x="202" y="360" width="6.5" height="68" rx="3" fill="#6B4629"/>
<rect x="228" y="368" width="46" height="44" rx="6" fill="#B87A22"/>
<rect x="231" y="371" width="40" height="38" rx="4" fill="#E8A83C"/>
<rect x="231" y="371" width="40" height="12" rx="4" fill="#FFCF7A"/>
<rect x="235.0" y="376" width="1.6" height="5" fill="#7A4E14"/>
<rect x="241.4" y="376" width="1.6" height="5" fill="#7A4E14"/>
<rect x="247.8" y="376" width="1.6" height="5" fill="#7A4E14"/>
<rect x="254.2" y="376" width="1.6" height="5" fill="#7A4E14"/>
<rect x="260.6" y="376" width="1.6" height="5" fill="#7A4E14"/>
<rect x="267.0" y="376" width="1.6" height="5" fill="#7A4E14"/>
<rect x="252" y="373" width="2.2" height="34" fill="#8A2E1E"/>
<ellipse cx="251" cy="390" rx="62" ry="42" fill="url(#lg)" opacity="0.45"><animate attributeName="opacity" values="0.3;0.55;0.4;0.55;0.3" dur="5s" repeatCount="indefinite"/></ellipse>
<circle cx="240" cy="444" r="8" fill="#33241A"/><circle cx="238" cy="441" r="2.6" fill="#8A5A32"/>
<circle cx="266" cy="444" r="8" fill="#33241A"/><circle cx="264" cy="441" r="2.6" fill="#8A5A32"/>
<polygon points="140,468 156,468 154,474 142,474" fill="#33241A"/>
<polygon points="270,468 286,468 284,474 272,474" fill="#33241A"/>
<circle cx="112" cy="446" r="15" fill="#B0442E"/>
<circle cx="112" cy="444" r="11" fill="#EFE0C6"/>
<circle cx="104" cy="432" r="4.4" fill="#B0442E"/>
<circle cx="120" cy="432" r="4.4" fill="#B0442E"/>
<rect x="111" y="437" width="2" height="8" fill="#33241A"/>
<rect x="112" y="443" width="6" height="2" fill="#33241A"/>
<polygon points="104,460 108,466 100,466" fill="#33241A"/>
<polygon points="120,460 124,466 116,466" fill="#33241A"/>
<rect x="282" y="462" width="34" height="6" fill="#3E5A4A"/>
<rect x="286" y="456" width="28" height="6" fill="#6B4629"/>
<rect x="0" y="620" width="390" height="224" fill="#241E18"/>
<path d="M200 640 Q220 600 280 598 L390 592 L390 844 L150 844 Q160 700 200 640 Z" fill="#33413A"/>
<path d="M200 640 Q220 600 280 598 L390 592 L390 620 L286 626 Q236 630 214 668 Z" fill="#3E4E44"/>
<ellipse cx="336" cy="646" rx="62" ry="26" fill="#6E7885"/>
<ellipse cx="336" cy="641" rx="62" ry="22" fill="#7E8895"/>
<ellipse cx="250" cy="392" rx="195" ry="195" fill="url(#lg)" opacity="0.42"/>
<filter id="g"><feTurbulence type="fractalNoise" baseFrequency="0.9" numOctaves="2" stitchTiles="stitch"/><feColorMatrix type="matrix" values="0 0 0 0 0 0 0 0 0 0 0 0 0 0 0 0 0 0 0.55 0"/></filter>
<rect width="390" height="844" filter="url(#g)" opacity="0.16"/>
</svg>